<svg xmlns="http://www.w3.org/2000/svg" viewBox="0 0 220 72" role="img" aria-labelledby="title desc">
  <title id="title">Meta Ads logo</title>
  <desc id="desc">Meta infinity logo with Meta Ads wordmark</desc>
  <rect width="220" height="72" rx="14" fill="#ffffff"/>
  <path d="M42 46c-9.8 0-16-7.2-16-15.2 0-8.6 5.8-15 13.6-15 7.2 0 12.3 4.9 18.5 15.1 6.1-10.2 11.3-15.1 18.5-15.1 7.8 0 13.6 6.4 13.6 15 0 8-6.2 15.2-16 15.2-8.4 0-14-5.5-20.2-16.1C48 40.5 42.5 46 42 46Zm-1.9-8.4c3.8 0 7.1-3.4 12.5-12.2-4.8-7.2-8.4-10-12.8-10-4.7 0-8 3.7-8 8.8 0 5.4 3.6 13.4 8.3 13.4Zm35.6 0c4.7 0 8.3-8 8.3-13.4 0-5.1-3.3-8.8-8-8.8-4.4 0-8 2.8-12.8 10 5.4 8.8 8.7 12.2 12.5 12.2Z" fill="#0668E1"/>
  <text x="104" y="34" font-family="Inter, Arial, sans-serif" font-size="20" font-weight="800" fill="#111827">Meta</text>
  <text x="104" y="52" font-family="Inter, Arial, sans-serif" font-size="14" font-weight="700" fill="#475569">Ads</text>
</svg>